<svg class="icon" viewBox="0 0 1024 1024" xmlns="http://www.w3.org/2000/svg" width="128" height="128"><defs><style/></defs><path d="M702.08 994.133H313.813a100.693 100.693 0 01-100.48-100.48v-769.28a100.693 100.693 0 01100.48-100.48H702.08a100.693 100.693 0 01100.48 100.48v769.28a100.693 100.693 0 01-100.48 100.48zM313.813 45.227a79.36 79.36 0 00-79.146 79.146v769.28a79.36 79.36 0 0079.146 79.147H702.08a79.36 79.36 0 0079.147-79.147v-769.28a79.36 79.36 0 00-79.147-79.146z"/><path d="M223.787 175.573h568.106v21.334H223.787zm0 602.88h568.106v21.334H223.787zm284.16 174.507a53.333 53.333 0 1153.333-53.333 53.333 53.333 0 01-53.333 53.333zm0-85.333a32 32 0 1032 32 32 32 0 00-32-32zM296.32 546.347L354.987 393.6h21.333l62.507 152.747h-22.614l-17.706-46.294h-64l-16.854 46.294zm45.013-62.507h51.84l-16-42.667q-7.253-19.2-10.88-31.573a196.053 196.053 0 01-8.32 29.227zm113.92 62.507V393.813H512a138.453 138.453 0 0123.253 1.494 46.08 46.08 0 0118.774 7.04 37.547 37.547 0 0112.16 14.72 49.707 49.707 0 01-7.68 53.76 59.52 59.52 0 01-44.8 13.44H475.52v62.08zm20.267-80h39.467a42.667 42.667 0 0027.733-7.254 26.027 26.027 0 008.32-21.333 27.733 27.733 0 00-4.907-16.427 22.613 22.613 0 00-12.8-8.96 86.827 86.827 0 00-18.773-1.28h-39.04zm121.813 80V393.813h57.6a138.453 138.453 0 0123.254 1.494 46.08 46.08 0 0118.773 7.04 37.547 37.547 0 0112.16 14.72 49.707 49.707 0 01-7.68 53.76 59.52 59.52 0 01-44.8 13.44h-37.973v62.08zm21.334-80h39.466a42.667 42.667 0 0027.734-7.254 26.027 26.027 0 008.32-21.333 27.733 27.733 0 00-4.907-16.427 22.613 22.613 0 00-12.8-8.96 86.827 86.827 0 00-18.773-1.28h-39.04zM465.28 99.413h155.947v21.334H465.28zM406.827 110.08a14.08 14.08 0 1028.16 0 14.08 14.08 0 10-28.16 0z"/></svg>