<svg class="icon" viewBox="0 0 1024 1024" xmlns="http://www.w3.org/2000/svg" width="128" height="128"><defs><style/></defs><path d="M855.194 512.34A263.12 263.12 0 00663.28 259.39a33.907 33.907 0 00-42.045 33.908 33.907 33.907 0 0024.074 33.907 194.628 194.628 0 010 374.676 33.907 33.907 0 00-24.074 33.907 33.907 33.907 0 0042.045 33.907A263.12 263.12 0 00855.194 512.34zM529.006 0a46.114 46.114 0 00-27.804 12.546l-10.85 9.494-109.86 89.515L224.18 240.064H83.465a67.815 67.815 0 00-67.815 67.814v400.784a67.815 67.815 0 0067.815 67.815h131.899l160.381 131.9 111.216 91.21 14.58 11.867A46.114 46.114 0 00529.345 1024c11.868 0 20.006-8.816 23.057-24.413a65.78 65.78 0 000-12.546V37.298a67.815 67.815 0 000-14.92C548.672 7.799 540.196 0 529.006 0zm-208.19 775.12l-81.039-67.814H83.465V307.878h164.789l78.665-64.424 158.686-130.543V910.75z"/><path d="M733.806 71.544a33.907 33.907 0 00-48.826 30.178 33.907 33.907 0 0019.327 30.516 421.128 421.128 0 010 756.133 33.907 33.907 0 00-19.327 30.516 33.907 33.907 0 0048.826 30.856 488.943 488.943 0 000-878.538z"/></svg>