<svg class="icon" viewBox="0 0 1024 1024" xmlns="http://www.w3.org/2000/svg" width="128" height="128"><defs><style/></defs><path d="M516.668 807.863c5.004 0 10.095-.308 15.221-.917 49.158-5.9 90.9-40.26 106.307-87.61 1.163-3.54-.516-7.336-3.907-8.892-3.352-1.561-7.41-.212-9.306 2.966-.18.302-19.71 31.849-95.746 42.118-11.382 1.527-22.458 2.328-32.956 2.328-53.27-.034-77.01-20.113-77.227-20.298-2.68-2.384-6.772-2.445-9.52-.123-2.775 2.322-3.414 6.358-1.521 9.447 23.19 37.595 64.803 60.981 108.655 60.981zm408.836-471.23c-.67 0-1.28.124-1.918.124C879.034 143.879 708.803 0 504.704 0 294.99 0 120.854 151.824 82.257 352.685c-37.528 6.753-66.092 39.738-66.092 79.628v159.654c0 44.747 35.883 81.033 80.189 81.033 24.992 0 47.052-11.802 61.726-29.928 35.458 93.782 107.642 169.397 198.995 209.293.218-.476 1.947-3.84 4.029-6.52 1.438-1.858 3.05-3.38 4.432-3.38 1.433 0 2.748.52 3.873 1.314-21.143-15.741-97.514-96.656-114.056-209.572-7.258-49.7 29.968-98.488 73.322-106.558 69.6-12.96 138.836-27.722 208.436-40.437 44.244-8.07 74.48-32.34 92.97-72.75 4.332-9.447 10.588-28.547 13.459-56.092.76-4.096 4.119-7.24 8.422-7.24 2.871 0 5.311 1.465 6.928 3.575l1.92-1.192c27.432 39.827 81.834 128.013 89.646 221 8.97 106.31 3.967 179.124-77.407 253.615a5.16 5.16 0 01-.336.308 6.656 6.656 0 00-1.803 4.554c0 2.29 1.22 4.248 2.989 5.44.672.275 1.344.643 2.015.918.548.123 1.07.303 1.618.303.553 0 1.04-.18 1.527-.303 1.16-.61 2.255-1.315 3.385-1.925 82.294-45.336 145.424-121.046 174.597-212.108 11.809 17.544 30.298 30.17 51.776 34.573-34.45 156.683-174.193 254.746-347.324 269.631-10.375-25.737-35.916-44.014-65.91-44.014-39.175 0-70.94 31.026-70.94 69.265 0 38.24 31.76 69.23 70.94 69.23 31.584 0 58.036-20.292 67.22-48.172 200.406-16.29 361.057-135.411 394.595-320.495 29.627-12.384 50.433-41.45 50.433-75.381V418.407c0-45.15-36.862-81.773-82.327-81.773zm-73.93 46.405c-52.269-141.59-187.714-242.736-347.05-242.736-158.669 0-293.627 100.29-346.382 240.963-2.625-3.212-5.704-5.96-8.725-8.742 29.866-171.423 177.4-301.76 355.287-301.76 177.036 0 324.11 129.055 354.955 299.287-3.048 4.096-5.858 8.37-8.085 12.988zM357.087 852.365h-.012c-.033.072-.033.083.012 0zm0 0"/></svg>